# xmcd
#
# Track frame offsets: 
#        150
#        11565
#        25499
#        42946
#        52950
#        62586
#        76290
#        88033
#        100395
#        111366
#        126138
#        138630
#        149707
#
# Disc length: 2159 seconds
#
# Revision: 0
# Processed by: cddbd v1.5.2PL0 Copyright (c) Steve Scherf et al.
# Submitted via: ExactAudioCopy v0.95b4
#
DISCID=b8086d0d
DTITLE=Bobby Maynard - Livin' Lovin' Laughin'
DYEAR=2007
DGENRE=Bluegrass
TTITLE0=East To West Virginia
TTITLE1=Cora Is Gone
TTITLE2=The Last Time That Miner Went Down
TTITLE3=I Can't Live Livin' Here
TTITLE4=Weight (Wait) Problem
TTITLE5=Angels That Can Sing And Play
TTITLE6=My New Love
TTITLE7=Take Jesus Home
TTITLE8=Pick Nick
TTITLE9=Fifty Years
TTITLE10=Don't Go Out Tonight
TTITLE11=Go Getter
TTITLE12=Run Annabelle Run
EXTD=
EXTT0=
EXTT1=
EXTT2=
EXTT3=
EXTT4=
EXTT5=
EXTT6=
EXTT7=
EXTT8=
EXTT9=
EXTT10=
EXTT11=
EXTT12=
PLAYORDER=
